<svg width="279" height="281" viewBox="0 0 279 281" fill="none" xmlns="http://www.w3.org/2000/svg">
<path d="M166.645 141.53L251.095 57.0791L251.4 56.7741C251.528 56.6461 251.761 56.5421 251.941 56.5591C252.092 56.5721 252.171 56.5601 252.322 56.5531C252.413 56.5491 252.516 56.5531 252.594 56.5791C252.856 56.6671 252.902 56.8811 253.094 57.0791C254.945 58.9841 255.619 60.3711 257.095 62.5791C259.407 66.0401 260.527 68.1631 262.422 71.7531L262.595 72.0791C264.715 76.0961 265.936 78.3511 267.595 82.5791C269.602 87.6991 270.061 90.7991 271.595 96.0791C272.784 100.175 273.501 102.457 274.595 106.579C275.42 109.692 276.021 111.411 276.595 114.579C277.329 118.633 277.291 120.972 277.595 125.079C277.854 128.59 278.095 134.079 278.095 134.079V147.579C278.095 147.579 277.98 153.384 277.595 157.079C277.308 159.826 276.985 161.346 276.595 164.079C276.204 166.813 276.058 168.357 275.595 171.079C275.093 174.024 274.726 175.66 274.095 178.579C273.544 181.126 273.329 182.58 272.595 185.079C271.532 188.698 270.356 190.526 269.095 194.079C268.268 196.407 267.981 197.774 267.095 200.079C265.214 204.97 263.658 207.51 261.095 212.079C259.079 215.672 257.97 217.714 255.594 221.079C253.432 224.144 252.006 225.707 249.594 228.579C246.393 232.392 244.519 234.466 241.094 238.079C237.866 241.487 236.077 243.431 232.594 246.579C229.405 249.463 227.53 250.992 224.094 253.579C220.504 256.284 218.395 257.679 214.594 260.079C211.338 262.136 209.478 263.24 206.094 265.079C202.642 266.957 200.674 267.957 197.094 269.579C193.825 271.061 191.982 271.891 188.594 273.079C185.329 274.225 183.437 274.684 180.094 275.579C177.762 276.205 176.422 276.435 174.094 277.079C172.13 277.624 170.979 278.012 169 278.5C164.79 279.537 162.418 279.763 158.094 280.079C153.031 280.45 150.171 280.079 145.094 280.079H130.094C124.237 280.079 123.377 279.973 119.094 279.579C117.334 279.418 116.348 279.306 114.594 279.079C111.061 278.622 109.086 278.29 105.594 277.579C103.042 277.06 101.601 276.788 99.094 276.079C96.718 275.407 95.426 274.893 93.094 274.079C90.937 273.326 89.713 272.938 87.594 272.079C84.599 270.865 82.997 270.001 80.094 268.579C76.005 266.576 73.733 265.337 69.791 263.187L69.594 263.079C66.448 261.363 64.609 260.518 61.594 258.579C59.59 257.29 58.465 256.556 56.594 255.079C54.966 253.792 52.594 251.579 52.594 251.579C52.594 251.579 50.144 249.46 48.594 248.079C46.222 245.964 42.594 242.579 42.594 242.579C42.594 242.579 38.581 238.669 36.094 236.079C33.702 233.587 32.343 232.202 30.094 229.579C27.197 226.198 25.642 224.231 23.094 220.579C21.235 217.914 20.279 216.359 18.594 213.579C16.9627 210.887 16.0308 209.381 14.5945 206.579C12.8398 203.157 12.1441 201.1 10.5945 197.579C8.62149 193.097 7.12449 190.731 5.59449 186.079C4.64749 183.2 4.30619 181.526 3.59449 178.579L3.53159 178.319C2.68009 174.795 2.18219 172.734 1.59449 169.079C1.06379 165.779 0.931589 163.905 0.594489 160.579C0.376989 158.434 0.218089 157.233 0.0944889 155.079C-0.118111 151.376 0.0944889 149.289 0.0944889 145.579C0.0944889 139.722 -0.0694111 136.435 0.0944889 130.579C0.209289 126.476 0.221289 124.168 0.594489 120.079C0.880689 116.944 1.14429 115.196 1.59449 112.079C2.10399 108.553 2.36189 106.566 3.09449 103.079C3.75659 99.9281 4.17349 98.1651 5.09449 95.0791C6.10119 91.7061 6.79989 89.8531 8.09449 86.5791C9.82979 82.1911 11.051 79.8331 13.0945 75.5791C14.6072 72.4311 15.3897 70.6281 17.094 67.5791C18.893 64.3631 20.015 62.6201 22.094 59.5791C24.299 56.3561 25.647 54.6221 28.094 51.5791C30.351 48.7741 31.644 47.2171 34.094 44.5791C36.35 42.1521 37.7 40.8701 40.094 38.5791C42.391 36.3821 43.689 35.1571 46.094 33.0791C49.672 29.9901 51.742 28.3181 55.594 25.5791C57.89 23.9481 59.227 23.1041 61.594 21.5791C65.058 19.3501 67.015 18.1181 70.594 16.0791C72.721 14.8691 73.947 14.2511 76.094 13.0791C78.242 11.9081 79.356 11.0681 81.594 10.0791C83.121 9.40611 84.022 9.13811 85.594 8.57911C87.34 7.95911 88.337 7.66511 90.094 7.07911C93.023 6.10311 94.644 5.48911 97.594 4.57911C100.311 3.74211 101.822 3.20711 104.594 2.57911C106.724 2.09711 107.943 1.94911 110.094 1.57911C111.265 1.37811 111.92 1.25411 113.094 1.07911C115.233 0.762111 118.594 0.445108 118.594 0.445108C118.594 0.445108 121.639 0.171111 123.594 0.0791111C127.105 -0.0858889 125.37 0.0791111 132.594 0.0791111H142.594C146.691 -0.0988889 153.094 0.0791111 153.094 0.0791111L158.594 0.445108L164.094 1.57911L166.594 2.07911L168.594 2.57911C170.591 2.91211 172.559 3.40111 174.48 4.04111L174.594 4.07911L176.094 4.57911L181.094 6.07911L187.094 8.57911L191.594 10.5791L195.094 12.0791L198.094 13.5791L202.094 15.5791L204.094 16.5791L207.594 18.5791L210.094 20.0791L212.594 21.5791L215.594 23.5791L217.594 25.0791L217.918 25.2951C218.7 25.8171 219.429 26.4141 220.094 27.0791L220.594 27.5791L221.094 28.0791L221.144 28.1291C221.432 28.4171 221.594 28.8081 221.594 29.2161C221.594 29.4551 221.539 29.6901 221.432 29.9041L221.294 30.1801C221.162 30.4441 220.989 30.6871 220.782 30.8981L175.094 77.5791L148.174 104.035C146.792 105.393 145.255 106.583 143.594 107.579L142.464 108.144C141.886 108.433 141.278 108.658 140.652 108.815C139.95 108.99 139.229 109.079 138.505 109.079H126.094C126.094 109.079 125.173 109.17 124.594 109.079C123.985 108.983 123.094 108.579 123.094 108.579L122.655 108.433C121.949 108.197 121.26 107.912 120.594 107.579L119.094 106.579L118.771 106.364C117.989 105.842 117.26 105.244 116.594 104.579L116.094 104.079L114.094 102.079L112.094 100.079L109.094 97.0791L75.642 62.1931C74.618 61.1251 73.418 60.2411 72.094 59.5791C71.106 58.9201 69.988 58.4781 68.816 58.2831L68.429 58.2191C67.874 58.1261 67.312 58.0801 66.748 58.0801H65.155C64.116 58.0801 63.08 58.1661 62.055 58.3361C61.083 58.4981 60.125 58.7361 59.19 59.0471L59.021 59.1041C58.071 59.4201 57.145 59.8041 56.25 60.2511L55.594 60.5791L54.846 60.9531C54.013 61.3701 53.22 61.8601 52.475 62.4191C51.889 62.8591 51.334 63.3401 50.816 63.8581L50.68 63.9941C49.627 65.0471 48.707 66.2251 47.941 67.5021L47.155 68.8111C46.452 69.9831 45.926 71.2531 45.594 72.5791C45.262 73.5771 45.02 74.6031 44.871 75.6441L44.815 76.0371C44.668 77.0641 44.594 78.1001 44.594 79.1381V80.5001C44.594 81.2181 44.654 81.9361 44.772 82.6441C44.986 83.9271 45.39 85.1711 45.972 86.3341L46.094 86.5791C46.76 87.5771 47.514 88.5121 48.349 89.3741L62.594 104.079L101.094 144.079L101.82 144.804C102.667 145.652 103.429 146.581 104.094 147.579C104.094 147.579 107.762 152.301 109.594 155.579C109.897 156.12 110.194 156.623 110.442 157.125C111.192 158.638 111.287 160.419 111.594 162.079C111.772 163.039 111.594 164.579 111.594 164.579L112.594 237.579V240.836C112.594 241.663 112.676 242.487 112.838 243.298C113.009 244.15 113.267 244.982 113.609 245.78L113.83 246.296C114.338 247.481 114.972 248.608 115.722 249.657L116.01 250.061C116.732 251.071 117.536 252.02 118.413 252.898L118.978 253.462C120.054 254.539 121.206 255.538 122.424 256.451L122.594 256.579L122.786 256.694C124.322 257.616 125.93 258.413 127.594 259.079C128.588 259.41 129.628 259.579 130.676 259.579H134.094H136.015C136.733 259.579 137.451 259.52 138.16 259.402C139.442 259.188 140.686 258.783 141.849 258.202L142.094 258.079C143.425 257.414 144.693 256.63 145.883 255.737L146.094 255.579C147.089 254.916 147.974 254.104 148.721 253.171L149.594 252.079L151.844 249.079C152.343 248.414 152.782 247.705 153.154 246.961L153.379 246.51C153.523 246.223 153.645 245.926 153.747 245.622C153.977 244.931 154.094 244.208 154.094 243.479V242.579L154.559 168.079V165.65C154.559 164.275 154.74 162.907 155.095 161.579L155.125 161.445C155.769 158.546 156.766 155.736 158.094 153.079C159.091 151.086 160.315 149.215 161.742 147.503L162.095 147.079C163.425 145.084 164.949 143.225 166.645 141.53Z" fill="url(#paint0_linear_455_88)"/>
<defs>
<linearGradient id="paint0_linear_455_88" x1="95.544" y1="67.0071" x2="301.167" y2="103.557" gradientUnits="userSpaceOnUse">
<stop stop-color="#0843BB"/>
<stop offset="1" stop-color="#9009FF"/>
</linearGradient>
</defs>
</svg>
